<svg width="75" height="60" viewBox="0 0 75 60" fill="none" xmlns="http://www.w3.org/2000/svg">
<g id="&#240;&#159;&#166;&#134; icon &#34;cart outline&#34;">
<g id="Group">
<path id="Vector" d="M24.826 58.3825C26.4018 58.3825 27.6793 57.2351 27.6793 55.8197C27.6793 54.4043 26.4018 53.2568 24.826 53.2568C23.2502 53.2568 21.9728 54.4043 21.9728 55.8197C21.9728 57.2351 23.2502 58.3825 24.826 58.3825Z" stroke="black" stroke-width="3" stroke-linecap="round" stroke-linejoin="round"/>
<path id="Vector_2" d="M64.7717 58.3825C66.3475 58.3825 67.625 57.2351 67.625 55.8197C67.625 54.4043 66.3475 53.2568 64.7717 53.2568C63.1959 53.2568 61.9185 54.4043 61.9185 55.8197C61.9185 57.2351 63.1959 58.3825 64.7717 58.3825Z" stroke="black" stroke-width="3" stroke-linecap="round" stroke-linejoin="round"/>
<path id="Vector_3" d="M2 2H13.413L21.9728 45.5683H67.6249" stroke="black" stroke-width="3" stroke-linecap="round" stroke-linejoin="round"/>
<path id="Vector_4" d="M21.9727 35.3169H66.455C66.785 35.3171 67.1048 35.2146 67.36 35.0268C67.6153 34.839 67.7902 34.5776 67.8549 34.287L72.9908 11.2214C73.0322 11.0354 73.0272 10.8435 72.976 10.6594C72.9248 10.4754 72.8288 10.3039 72.6949 10.1572C72.561 10.0106 72.3925 9.89244 72.2015 9.81138C72.0106 9.73032 71.8021 9.68834 71.5909 9.68848H16.2662" stroke="black" stroke-width="3" stroke-linecap="round" stroke-linejoin="round"/>
</g>
</g>
</svg>
