<svg width="100" height="96" viewBox="0 0 100 96" fill="none" xmlns="http://www.w3.org/2000/svg">
<path d="M87.4081 38.4255C87.4081 18.8605 70.66 3 50 3C29.34 3 12.5918 18.8605 12.5918 38.4255" stroke="#BD00FF" stroke-width="5" stroke-linecap="round" stroke-linejoin="round"/>
<path d="M3 64.1479V55.7883C3 51.7003 5.99548 48.1374 10.2655 47.1459L18.6082 45.2088C20.4244 44.787 22.1837 46.0627 22.1837 47.8016V72.1346C22.1837 73.8735 20.4244 75.1492 18.6082 74.7274L10.2655 72.7902C5.99548 71.7988 3 68.2359 3 64.1479Z" stroke="#BD00FF" stroke-width="5"/>
<path d="M97.0001 64.1479V55.7883C97.0001 51.7003 94.0045 48.1374 89.7347 47.1459L81.3918 45.2088C79.5756 44.787 77.8164 46.0627 77.8164 47.8016V72.1346C77.8164 73.8735 79.5756 75.1492 81.3918 74.7274L89.7347 72.7902C94.0045 71.7988 97.0001 68.2359 97.0001 64.1479Z" stroke="#BD00FF" stroke-width="5"/>
<path d="M87.4082 74.8085V77.1064C87.4082 82.1828 83.192 86.2979 77.9908 86.2979H61.5103" stroke="#BD00FF" stroke-width="5"/>
<path d="M57.1939 93H42.8062C38.8331 93 35.6123 89.9992 35.6123 86.2979C35.6123 82.5965 38.8331 79.5957 42.8062 79.5957H57.1939C61.1669 79.5957 64.3878 82.5965 64.3878 86.2979C64.3878 89.9992 61.1669 93 57.1939 93Z" stroke="#BD00FF" stroke-width="5"/>
</svg>
