<svg width="123" height="94" viewBox="0 0 123 94" fill="none" xmlns="http://www.w3.org/2000/svg">
<path d="M122.649 45.4348L109.47 15.459C109.134 14.685 108.571 14.0245 107.853 13.56C107.134 13.0955 106.291 12.8475 105.429 12.8468H92.25V4.28227C92.25 3.14654 91.7872 2.05733 90.9634 1.25425C90.1395 0.451167 89.0222 0 87.8571 0H4.39286C3.2278 0 2.11046 0.451167 1.28664 1.25425C0.462817 2.05733 0 3.14654 0 4.28227V77.0808C0 78.2165 0.462817 79.3057 1.28664 80.1088C2.11046 80.9119 3.2278 81.363 4.39286 81.363H13.7936C14.8052 84.9917 17.0135 88.195 20.078 90.4788C23.1424 92.7626 26.8926 94 30.75 94C34.6074 94 38.3576 92.7626 41.422 90.4788C44.4865 88.195 46.6948 84.9917 47.7064 81.363H75.2936C76.3052 84.9917 78.5135 88.195 81.578 90.4788C84.6424 92.7626 88.3926 94 92.25 94C96.1074 94 99.8576 92.7626 102.922 90.4788C105.986 88.195 108.195 84.9917 109.206 81.363H118.607C119.772 81.363 120.89 80.9119 121.713 80.1088C122.537 79.3057 123 78.2165 123 77.0808V47.1049C122.999 46.5309 122.879 45.9629 122.649 45.4348ZM92.25 21.4113H102.529L111.93 42.8227H92.25V21.4113ZM30.75 85.6453C29.0124 85.6453 27.3137 85.143 25.8689 84.2019C24.4241 83.2608 23.298 81.9232 22.6331 80.3583C21.9681 78.7933 21.7941 77.0713 22.1331 75.4099C22.4721 73.7486 23.3089 72.2225 24.5376 71.0247C25.7663 69.827 27.3317 69.0113 29.036 68.6808C30.7403 68.3503 32.5068 68.52 34.1121 69.1682C35.7175 69.8164 37.0897 70.9141 38.0551 72.3226C39.0204 73.731 39.5357 75.3869 39.5357 77.0808C39.5357 79.3522 38.6101 81.5306 36.9624 83.1368C35.3148 84.743 33.0801 85.6453 30.75 85.6453ZM75.2936 72.7985H47.7064C46.6948 69.1698 44.4865 65.9665 41.422 63.6827C38.3576 61.3989 34.6074 60.1615 30.75 60.1615C26.8926 60.1615 23.1424 61.3989 20.078 63.6827C17.0135 65.9665 14.8052 69.1698 13.7936 72.7985H8.78571V8.56453H83.4643V62.3498C81.464 63.4815 79.7125 64.9871 78.3104 66.7801C76.9083 68.5732 75.8831 70.6184 75.2936 72.7985ZM92.25 85.6453C90.5124 85.6453 88.8137 85.143 87.3689 84.2019C85.9241 83.2608 84.798 81.9232 84.1331 80.3583C83.4681 78.7933 83.2941 77.0713 83.6331 75.4099C83.9721 73.7486 84.8089 72.2225 86.0376 71.0247C87.2663 69.827 88.8317 69.0113 90.536 68.6808C92.2402 68.3503 94.0068 68.52 95.6122 69.1682C97.2175 69.8164 98.5897 70.9141 99.5551 72.3226C100.52 73.731 101.036 75.3869 101.036 77.0808C101.036 79.3522 100.11 81.5306 98.4624 83.1368C96.8148 84.743 94.5801 85.6453 92.25 85.6453ZM114.214 72.7985H109.206C108.235 69.1309 106.044 65.8805 102.976 63.556C99.9077 61.2316 96.1357 59.964 92.25 59.9517V51.3872H114.214V72.7985Z" fill="#BD00FF"/>
</svg>
