<svg width="53" height="42" viewBox="0 0 53 42" fill="none" xmlns="http://www.w3.org/2000/svg">
<g id="&#240;&#159;&#166;&#134; icon &#34;headphone&#34;">
<g id="Group">
<path id="Vector" opacity="0.4" d="M1.992 35.0352C0.905606 35.0352 0.00469367 34.3176 0.00469367 33.4522V21.4221C-0.127793 15.7026 2.54845 10.2995 7.52996 6.24725C12.5115 2.21609 19.1888 0 26.3696 0C41.0491 0 52.9995 9.51862 52.9995 21.211V33.2412C52.9995 34.1065 52.0986 34.8241 51.0122 34.8241C49.9258 34.8241 49.0249 34.1065 49.0249 33.2412V21.211C49.0249 11.2704 38.8763 3.16584 26.3696 3.16584C20.2487 3.16584 14.5783 5.04423 10.3652 8.46334C6.1256 11.9035 3.87332 16.4835 3.97931 21.3798V33.4311C3.97931 34.3176 3.10489 35.0352 1.992 35.0352Z" fill="#292D32"/>
<path id="Vector_2" d="M10.4451 21.9497H10.1006C4.53619 21.9497 0.00512695 25.5588 0.00512695 29.9909V33.9588C0.00512695 38.391 4.53619 42 10.1006 42H10.4451C16.0096 42 20.5406 38.391 20.5406 33.9588V29.9909C20.5406 25.5588 16.0096 21.9497 10.4451 21.9497Z" fill="#292D32"/>
<path id="Vector_3" d="M42.9045 21.9497H42.56C36.9955 21.9497 32.4645 25.5588 32.4645 29.9909V33.9588C32.4645 38.391 36.9955 42 42.56 42H42.9045C48.4689 42 53 38.391 53 33.9588V29.9909C53 25.5588 48.4689 21.9497 42.9045 21.9497Z" fill="#292D32"/>
</g>
</g>
</svg>
