<svg width="88" height="98" viewBox="0 0 88 98" fill="none" xmlns="http://www.w3.org/2000/svg">
<path d="M87.6284 17.7835C87.3825 17.1895 87.022 16.65 86.5676 16.1959L71.9015 1.49591C71.4505 1.02791 70.9111 0.654619 70.3146 0.397816C69.7182 0.141012 69.0767 0.00583868 68.4276 0.000185005C67.7784 -0.00546867 67.1347 0.118511 66.5339 0.364886C65.9331 0.611261 65.3873 0.975104 64.9282 1.43518C64.4692 1.89525 64.1062 2.44235 63.8604 3.04454C63.6146 3.64673 63.4909 4.29196 63.4966 4.94258C63.5022 5.59319 63.6371 6.23618 63.8933 6.83399C64.1495 7.43181 64.5219 7.9725 64.9888 8.42451L71.3099 14.7602H24.4468C17.9639 14.7602 11.7466 17.3415 7.16256 21.9361C2.57851 26.5307 0.00321259 32.7624 0.00321259 39.2602V49.0602C0.00321259 50.3598 0.518271 51.6061 1.43508 52.525C2.35189 53.444 3.59536 53.9602 4.89192 53.9602C6.18849 53.9602 7.43195 53.444 8.34876 52.525C9.26557 51.6061 9.78063 50.3598 9.78063 49.0602V39.2602C9.78063 35.3615 11.3258 31.6225 14.0762 28.8657C16.8267 26.109 20.5571 24.5602 24.4468 24.5602H71.3099L64.9888 30.8959C64.0983 31.8201 63.6056 33.0578 63.6167 34.3426C63.6278 35.6273 64.142 36.8563 65.0484 37.7648C36.896 34.3426 67.1809 39.1886 68.4627 39.1998C69.7445 39.211 70.9795 38.7171 71.9015 37.8245L86.5676 23.1245C87.0222 22.6701 87.3828 22.1301 87.6286 21.5356C87.8745 20.9411 88.0007 20.3038 88 19.6602M87.6284 17.7835C87.8727 18.3738 87.999 19.0064 88 19.6455L87.6284 17.7835ZM0.374754 76.5835C0.00268862 77.4788 -0.0951106 78.4648 0.0938115 79.4159C0.282734 80.3671 0.749827 81.2403 1.4356 81.9245L16.1017 96.6245C17.0238 97.5171 18.2587 98.011 19.5405 97.9998C20.8223 97.9886 22.0484 97.4733 22.9548 96.5648C23.8612 95.6563 24.3754 94.4273 24.3865 93.1426C24.3976 91.8578 23.9049 90.62 23.0144 89.6959L16.6933 83.3602H63.5564C70.0393 83.3602 76.2566 80.7789 80.8406 76.1843C85.4247 71.5897 88 65.358 88 58.8602V49.0602C88 47.7606 87.4849 46.5143 86.5681 45.5954C85.6513 44.6765 84.4079 44.1602 83.1113 44.1602C81.8147 44.1602 80.5713 44.6765 79.6544 45.5954C78.7376 46.5143 78.2226 47.7606 78.2226 49.0602V58.8602C78.2226 62.7589 76.6774 66.4979 73.927 69.2547C71.1765 72.0115 67.4461 73.5602 63.5564 73.5602H16.6933L23.0144 67.2245C23.4813 66.7725 23.8537 66.2318 24.1099 65.634C24.3661 65.0362 24.501 64.3932 24.5067 63.7426C24.5123 63.092 24.3886 62.4467 24.1428 61.8445C23.897 61.2423 23.534 60.6952 23.075 60.2352C22.616 59.7751 22.0701 59.4113 21.4693 59.1649C20.8685 58.9185 20.2248 58.7945 19.5756 58.8002C18.9265 58.8058 18.285 58.941 17.6886 59.1978C17.0921 59.4546 16.5527 59.8279 16.1017 60.2959L1.4356 74.9959M0.374754 76.5835C0.61888 75.9938 0.97597 75.4577 1.42583 75.0057L0.374754 76.5835Z" fill="#BD00FF"/>
</svg>
